PathFileType	4	(X/Y/Z)	C:\Users\dbl\Desktop\20210112(1)\20210112\bx_y_0_1802.trc
DataRate	CameraRate	NumFrames	NumMarkers	Units	OrigDataRate	OrigDataStartFrame	OrigNumFrames
50.00	50.00	       8	43	mm	50.00	47	       375
Frame#	Time	Top.Head			R.Acromium			L.Acromium			Sternum			R.ASIS			L.ASIS			V.Sacral			R.Thigh.Upper			R.Thigh.Front			R.Thigh.Rear			R.Knee.Lat			R.Knee.Med			R.Shank.Upper			R.Shank.Front			R.Shank.Rear			R.Ankle.Lat			R.Midfoot.Lat			R.Toe.Lat			R.Toe.Tip			R.Toe.Med			R.Ankle.Med			R.Midfoot.Sup			R.Heel			L.Thigh.Upper			L.Thigh.Front			L.Thigh.Rear			L.Knee.Lat			L.Knee.Med			L.Shank.Upper			L.Shank.Front			L.Shank.Rear			L.Ankle.Lat			L.Midfoot.Lat			L.Toe.Lat			L.Toe.Tip			L.Toe.Med			L.Ankle.Med			L.Midfoot.Sup			L.Heel			origin1 front left			origin2 front right			origin 3 back right			origin 4 back leftt			
		X1	Y1	Z1	X2	Y2	Z2	X3	Y3	Z3	X4	Y4	Z4	X5	Y5	Z5	X6	Y6	Z6	X7	Y7	Z7	X8	Y8	Z8	X9	Y9	Z9	X10	Y10	Z10	X11	Y11	Z11	X12	Y12	Z12	X13	Y13	Z13	X14	Y14	Z14	X15	Y15	Z15	X16	Y16	Z16	X17	Y17	Z17	X18	Y18	Z18	X19	Y19	Z19	X20	Y20	Z20	X21	Y21	Z21	X22	Y22	Z22	X23	Y23	Z23	X24	Y24	Z24	X25	Y25	Z25	X26	Y26	Z26	X27	Y27	Z27	X28	Y28	Z28	X29	Y29	Z29	X30	Y30	Z30	X31	Y31	Z31	X32	Y32	Z32	X33	Y33	Z33	X34	Y34	Z34	X35	Y35	Z35	X36	Y36	Z36	X37	Y37	Z37	X38	Y38	Z38	X39	Y39	Z39	X40	Y40	Z40	X41	Y41	Z41	X42	Y42	Z42	X43	Y43	Z43	

47	0.920	-643.47559	116.61288	1845.03259	-683.05884	-71.89306	1541.76392	-714.98523	290.98312	1530.88977	-619.97156	107.29869	1427.87659	-593.90112	-2.84617	1048.64551	-589.79919	223.23877	1069.75122	-793.37659	95.34122	1054.34534	-649.08179	-66.03490	858.10498	-583.91284	-0.14066	802.40546	-693.56842	-45.35961	716.54102	-701.91492	-25.45342	615.11707	-692.50616	83.47655	574.73767	-716.64990	-22.04128	566.80908	-668.77606	21.25402	519.39276	-764.27722	-32.33848	488.32184	-766.90436	-3.03595	207.81497	-664.74518	-65.31450	164.58745	-623.35828	-76.82663	160.40982	-559.77118	-41.73400	162.45451	-602.97144	20.04737	166.05418	-716.95374	80.13761	216.27219	-674.68439	57.21507	156.29333	-794.51160	57.58109	174.97685	-644.02051	282.18964	877.26025	-584.00775	220.48271	815.70563	-693.73376	272.48621	748.35504	-724.48535	249.80290	641.46710	-688.98059	144.09517	573.74316	-728.86609	245.70799	576.69104	-675.24200	205.88023	532.36487	-770.30249	254.63382	502.95364	-771.52734	221.58012	205.37662	-666.79004	298.08994	160.83055	-628.95190	305.90411	163.24307	-560.15033	260.92102	165.18338	-594.97113	221.97934	173.73819	-711.71710	151.18886	216.34464	-675.44635	171.52771	156.65384	-796.67273	171.57182	184.09418	-528.06110	304.25458	146.47083	-517.69287	-72.82481	142.75229	-875.90643	-78.71322	141.31021	-882.53149	296.08011	144.58597	
48	0.940	-643.54468	116.68484	1845.03479	-683.14441	-71.80490	1541.72522	-715.14526	291.03058	1530.86292	-620.06396	107.31513	1427.84741	-593.97650	-2.64418	1048.67395	-589.84991	223.29765	1069.74878	-793.46436	95.39957	1054.33118	-649.06531	-66.00436	858.14526	-583.91388	-0.00866	802.37897	-693.57562	-45.35538	716.52045	-701.94086	-25.42876	615.09473	-692.53821	83.55927	574.67450	-716.63757	-21.98888	566.83417	-668.79663	21.28325	519.36298	-764.28778	-32.32879	488.31894	-766.90942	-3.06259	207.84642	-664.70520	-65.32548	164.62819	-623.39069	-76.80253	160.38756	-559.75409	-41.74640	162.46085	-602.98077	20.04445	166.05890	-716.90179	80.16309	216.16530	-674.69983	57.23846	156.28584	-794.51392	57.56554	174.96033	-644.05542	282.22852	877.23584	-584.07098	220.55888	815.70740	-693.92706	272.57809	748.34692	-724.52673	249.94350	641.52875	-688.97949	144.07599	573.78265	-728.90289	245.76579	576.69421	-675.24249	205.90613	532.38153	-770.35547	254.63092	503.00562	-771.52612	221.56683	205.36185	-666.79224	298.09216	160.84221	-628.93915	305.85718	163.22964	-560.15387	260.92981	165.18178	-594.94965	221.95192	173.72308	-711.72357	151.20392	216.37210	-675.41840	171.56276	156.68028	-796.68726	171.56911	184.07169	-528.03394	304.25287	146.49863	-517.68921	-72.79779	142.73933	-875.87408	-78.70220	141.26892	-882.50848	296.03864	144.56589	
49	0.960	-643.67340	116.78150	1845.03223	-683.24585	-71.68882	1541.68176	-715.29645	291.09818	1530.81848	-620.17883	107.34122	1427.83350	-594.07916	-2.41852	1048.70984	-589.90485	223.32498	1069.75854	-793.56396	95.47790	1054.32837	-649.01575	-65.91257	858.15497	-583.92145	0.14180	802.37054	-693.58051	-45.35376	716.50293	-701.95886	-25.40285	615.09387	-692.62903	83.66464	574.59155	-716.62604	-21.94687	566.85760	-668.81549	21.32694	519.36823	-764.28223	-32.31937	488.33401	-766.89691	-3.05212	207.85771	-664.66687	-65.32644	164.64063	-623.41162	-76.79441	160.37582	-559.73175	-41.75751	162.46222	-602.97369	20.03577	166.05252	-716.88696	80.16634	216.12331	-674.68903	57.23963	156.28160	-794.51544	57.56448	174.96016	-644.12115	282.30438	877.24243	-584.12598	220.62016	815.72150	-694.11572	272.68369	748.37854	-724.56519	250.07841	641.58533	-688.92950	144.05846	573.86908	-728.92468	245.80127	576.69647	-675.24359	205.92017	532.38403	-770.38397	254.60634	503.00684	-771.51434	221.57327	205.38148	-666.80194	298.08386	160.85905	-628.92798	305.81525	163.25119	-560.18066	260.91199	165.19186	-594.94025	221.92543	173.71919	-711.72546	151.23366	216.37578	-675.41376	171.59222	156.69757	-796.70929	171.56584	184.04852	-528.00977	304.22726	146.51628	-517.68268	-72.82098	142.73999	-875.87573	-78.69213	141.26534	-882.50226	296.03110	144.56606	
50	0.980	-643.84247	116.91122	1845.03625	-683.34680	-71.55537	1541.65576	-715.43402	291.19028	1530.76892	-620.32526	107.38318	1427.84106	-594.20691	-2.20739	1048.74487	-589.97937	223.32903	1069.78040	-793.65137	95.56408	1054.32214	-648.95709	-65.77431	858.14349	-583.94440	0.27753	802.38727	-693.58521	-45.35100	716.50018	-701.95654	-25.36888	615.12335	-692.71515	83.74308	574.53925	-716.62341	-21.91379	566.88007	-668.82794	21.39796	519.39575	-764.29108	-32.28714	488.35220	-766.87067	-3.01347	207.84105	-664.64758	-65.30607	164.62900	-623.42273	-76.80726	160.37321	-559.70697	-41.77029	162.44542	-602.97144	20.03790	166.04497	-716.89838	80.16199	216.13145	-674.65045	57.21315	156.28558	-794.51947	57.57922	174.97829	-644.21655	282.42038	877.29370	-584.17371	220.67654	815.72803	-694.25623	272.77487	748.41339	-724.62128	250.19534	641.62714	-688.90442	144.10281	573.96014	-728.94055	245.82199	576.70313	-675.25885	205.92857	532.39044	-770.40588	254.59703	502.94559	-771.50653	221.58623	205.40477	-666.80859	298.06799	160.86909	-628.92627	305.79681	163.27861	-560.20544	260.87503	165.21152	-594.94958	221.91571	173.74406	-711.73108	151.26894	216.35326	-675.42731	171.59882	156.69327	-796.72528	171.55544	184.03665	-527.99518	304.18771	146.52855	-517.68652	-72.85787	142.74330	-875.90540	-78.69122	141.28499	-882.50800	296.04080	144.57872	
51	1.000	-644.01495	117.04597	1845.04504	-683.45007	-71.41702	1541.65613	-715.55981	291.30029	1530.73083	-620.51086	107.44041	1427.85657	-594.32898	-2.05407	1048.77649	-590.09564	223.34210	1069.81287	-793.71649	95.64326	1054.30042	-648.92725	-65.65054	858.13464	-583.97766	0.37814	802.41949	-693.59735	-45.34079	716.51898	-701.92981	-25.33376	615.17139	-692.75812	83.78104	574.52887	-716.62952	-21.89034	566.89832	-668.83398	21.47896	519.41858	-764.32214	-32.24242	488.35641	-766.84711	-2.97148	207.80705	-664.64276	-65.27569	164.60844	-623.43976	-76.82882	160.38812	-559.69061	-41.78277	162.40768	-602.98456	20.05500	166.04597	-716.89563	80.15683	216.13268	-674.60052	57.15983	156.29781	-794.53271	57.59989	175.00201	-644.32458	282.54880	877.37500	-584.23553	220.75371	815.71600	-694.33075	272.82956	748.43005	-724.70551	250.32988	641.67688	-688.95599	144.21049	574.02203	-728.97241	245.85365	576.71240	-675.29871	205.94121	532.41840	-770.44196	254.62982	502.88770	-771.51550	221.60477	205.41469	-666.80414	298.06143	160.86481	-628.93304	305.81033	163.29138	-560.20404	260.84201	165.23010	-594.97394	221.92809	173.79179	-711.74219	151.29512	216.32501	-675.42767	171.58434	156.68762	-796.72583	171.53271	184.02899	-527.98450	304.16040	146.54666	-517.69769	-72.87243	142.75453	-875.93555	-78.70370	141.29878	-882.51630	296.03818	144.57828	
52	1.020	-644.16156	117.15823	1845.05261	-683.56775	-71.28416	1541.67078	-715.68536	291.42505	1530.71423	-620.71454	107.50808	1427.86511	-594.39978	-1.99792	1048.80054	-590.25616	223.40045	1069.85950	-793.76660	95.71944	1054.27356	-648.94861	-65.56036	858.13141	-584.02386	0.44779	802.45294	-693.62170	-45.32015	716.56042	-701.88794	-25.29955	615.21002	-692.78833	83.81444	574.51593	-716.63611	-21.88084	566.91107	-668.83398	21.53512	519.42273	-764.35791	-32.20755	488.34769	-766.83795	-2.94654	207.78079	-664.64001	-65.25479	164.59451	-623.45923	-76.84199	160.41887	-559.69263	-41.78625	162.37198	-603.00012	20.07215	166.05428	-716.86127	80.15161	216.11409	-674.56360	57.09747	156.31102	-794.55377	57.61863	175.02065	-644.41559	282.64984	877.44617	-584.33179	220.88121	815.69006	-694.35248	272.84872	748.43256	-724.81329	250.51241	641.75995	-689.06775	144.32570	574.05743	-729.03625	245.91344	576.71216	-675.35181	205.95911	532.46503	-770.48950	254.68909	502.86475	-771.54291	221.64569	205.42358	-666.79224	298.07208	160.85144	-628.94025	305.84152	163.30254	-560.17828	260.83298	165.25003	-595.00787	221.95486	173.83406	-711.75262	151.30101	216.31187	-675.40643	171.56525	156.69588	-796.71356	171.50162	184.01241	-527.98853	304.17023	146.55765	-517.70123	-72.86283	142.79216	-875.94031	-78.71997	141.29170	-882.52258	296.01733	144.55640	
53	1.040	-644.27905	117.25251	1845.05518	-683.70837	-71.16936	1541.68359	-715.82996	291.57175	1530.71851	-620.89410	107.58939	1427.87402	-594.37213	-2.06458	1048.83093	-590.42633	223.52043	1069.92712	-793.81085	95.81708	1054.25964	-649.02454	-65.46220	858.12280	-584.07770	0.50451	802.47516	-693.65302	-45.29500	716.61316	-701.84497	-25.26213	615.21979	-692.84308	83.86990	574.46979	-716.64008	-21.88200	566.91394	-668.82086	21.56669	519.42352	-764.38904	-32.18633	488.33206	-766.84192	-2.94787	207.77777	-664.63910	-65.24848	164.59131	-623.45557	-76.82986	160.44560	-559.71277	-41.78117	162.36374	-603.00299	20.07285	166.06310	-716.81641	80.15883	216.09718	-674.55048	57.05216	156.31587	-794.57068	57.63124	175.02991	-644.46454	282.70889	877.48224	-584.45923	221.04703	815.65149	-694.34839	272.84821	748.42987	-724.92719	250.72118	641.86353	-689.18878	144.40385	574.09491	-729.11658	245.99283	576.68787	-675.39246	205.98096	532.50946	-770.53656	254.73781	502.84464	-771.57581	221.69893	205.43509	-666.78381	298.09027	160.84543	-628.94275	305.86749	163.33250	-560.14874	260.84982	165.28108	-595.04303	221.97836	173.84087	-711.75781	151.30511	216.30322	-675.38214	171.55380	156.71158	-796.69897	171.47879	183.99149	-528.02075	304.20758	146.54283	-517.69525	-72.84233	142.85289	-875.92157	-78.72414	141.27861	-882.52747	296.00647	144.53976	
54	1.060	-644.38361	117.35113	1845.04993	-683.87561	-71.08093	1541.68848	-715.99994	291.74023	1530.73193	-621.01477	107.69550	1427.90735	-594.21613	-2.25176	1048.90442	-590.56091	223.68446	1070.01294	-793.85437	95.94233	1054.25891	-649.15112	-65.31753	858.10052	-584.12756	0.54673	802.48999	-693.68439	-45.27607	716.66443	-701.82001	-25.22081	615.20605	-692.91016	83.93176	574.41125	-716.65021	-21.88207	566.89948	-668.79102	21.60494	519.43829	-764.42212	-32.16777	488.31012	-766.85138	-2.97405	207.79146	-664.63800	-65.25243	164.58803	-623.42578	-76.79259	160.45656	-559.73663	-41.77792	162.38731	-602.99500	20.05912	166.07452	-716.79602	80.19083	216.09096	-674.55524	57.03620	156.30952	-794.57440	57.63284	175.03163	-644.47876	282.74472	877.49274	-584.59735	221.19844	815.59198	-694.33942	272.84271	748.42719	-725.02350	250.89479	641.93951	-689.27826	144.44728	574.14355	-729.17749	246.06635	576.64191	-675.41589	206.01128	532.52692	-770.58679	254.75800	502.81049	-771.59595	221.72791	205.43414	-666.78790	298.10678	160.85278	-628.94269	305.87958	163.36914	-560.13214	260.87640	165.32152	-595.06079	221.98692	173.81392	-711.76111	151.34155	216.26874	-675.37402	171.54738	156.72473	-796.68927	171.48245	183.98737	-528.05884	304.22931	146.51689	-517.69183	-72.82227	142.91008	-875.90137	-78.71100	141.28123	-882.53497	296.03003	144.55186	
